{"title":"Lil Boosie Bad Azz DVD","uid":6226720,"size":733364224,"categoryP":"video","categoryS":"movies","magnet":"?xt=urn:btih:744a4f7d8153d1db084a6655cceb3dc45944c374&amp;dn=Lil+Boosie+Bad+Azz+DVD&amp;tr=udp%3A%2F%2Ftracker.openbittorrent.com%3A80&amp;tr=udp%3A%2F%2Fopen.demonii.com%3A1337&amp;tr=udp%3A%2F%2Ftracker.coppersurfer.tk%3A6969&amp;tr=udp%3A%2F%2Fexodus.desync.com%3A6969","seeders":10,"leechers":0,"uploader":"lilreaper22395","files":1,"time":1299541959,"description":"Language: English\nRegion: Region 1 (U.S. and Canada only. Read more about DVD formats.)\nAspect Ratio: 1.33:1\nNumber of discs: 1\nRated: Unrated\nStudio: Asylum Records\nDVD Release Date: September 19, 2006\nRun Time: 53 minutes\n\n\n\nFormat                           : AVI\nFormat/Info                      : Audio Video Interleave\nFile size                        : 699 MiB\nDuration                         : 53mn 59s\nOverall bit rate                 : 1 811 Kbps\nWriting application              : VirtualDubMod 1.5.4.1 (build 2178/release)\nWriting library                  : VirtualDubMod build 2178/release\n\nVideo\nID                               : 0\nFormat                           : MPEG-4 Visual\nFormat profile                   : Advanced Simple@L5\nFormat settings, BVOP            : 1\nFormat settings, QPel            : No\nFormat settings, GMC             : No warppoints\nFormat settings, Matrix          : Custom\nCodec ID                         : XVID\nCodec ID/Hint                    : XviD\nDuration                         : 53mn 59s\nBit rate                         : 1 687 Kbps\nWidth                            : 496 pixels\nHeight                           : 368 pixels\nDisplay aspect ratio             : 4:3\nFrame rate                       : 29.970 fps\nColor space                      : YUV\nChroma subsampling               : 4:2:0\nBit depth                        : 8 bits\nScan type                        : Progressive\nCompression mode                 : Lossy\nBits/(Pixel*Frame)               : 0.308\nStream size                      : 651 MiB (93%)\nWriting library                  : XviD 1.2.0.dev45 (UTC 2006-07-10)\n\nAudio\nID                               : 1\nFormat                           : MPEG Audio\nFormat version                   : Version 1\nFormat profile                   : Layer 3\nMode                             : Joint stereo\nMode extension                   : MS Stereo\nCodec ID                         : 55\nCodec ID/Hint                    : MP3\nDuration                         : 53mn 59s\nBit rate mode                    : Variable\nBit rate                         : 110 Kbps\nNominal bit rate                 : 128 Kbps\nChannel(s)                       : 2 channels\nSampling rate                    : 48.0 KHz\nCompression mode                 : Lossy\nStream size                      : 42.6 MiB (6%)\nAlignment                        : Aligned on interleaves\nInterleave, duration             : 24 ms (0.72 video frame)\nInterleave, preload duration     : 167 ms\nWriting library                  : LAME3.97b\nEncoding settings                : -m j -V 4 -q 2 -lowpass 17 --abr 128\n\nAwesome Torrent &amp; Good Quality \n\nPlease Seed &amp; Enjoy Torrent By LilReaper22395\n","torrent":{"xt":"urn:btih:744a4f7d8153d1db084a6655cceb3dc45944c374","amp;dn":"Lil+Boosie+Bad+Azz+DVD","amp;tr":["udp%3A%2F%2Ftracker.openbittorrent.com%3A80","udp%3A%2F%2Fopen.demonii.com%3A1337","udp%3A%2F%2Ftracker.coppersurfer.tk%3A6969","udp%3A%2F%2Fexodus.desync.com%3A6969"],"infoHash":"744a4f7d8153d1db084a6655cceb3dc45944c374","infoHashBuffer":{"type":"Buffer","data":[116,74,79,125,129,83,209,219,8,74,102,85,204,235,61,196,89,68,195,116]},"announce":[],"urlList":[]}}